<?xml version="1.0" encoding="UTF-8"?>
<svg id="Layer_2" data-name="Layer 2" xmlns="http://www.w3.org/2000/svg" viewBox="0 0 129.57 24.41">
  <defs>
    <style>
      .cls-1 {
        fill: #cb2026;
      }
    </style>
  </defs>
  <g id="Leaves_of_Peace" data-name="Leaves of Peace">
    <g>
      <g>
        <path class="cls-1" d="M3.95,7.88c-.16,0-.27,.03-.34,.08-.07,.05-.13,.14-.19,.26l-.77,2.01c-.06,.17-.09,.3-.09,.39,0,.15,.04,.27,.11,.37,.07,.1,.17,.17,.3,.23,.12,.06,.27,.1,.43,.14,.16,.03,.32,.06,.49,.07,.08,0,.14,.03,.17,.09,.03,.06,.05,.13,.05,.2s-.02,.13-.05,.2c-.03,.06-.09,.09-.17,.09-.27,0-.59-.02-.94-.07-.35-.05-.69-.07-1.01-.07-.3,0-.58,.02-.85,.07-.27,.05-.57,.07-.89,.07-.06,0-.11-.03-.14-.09-.04-.06-.06-.12-.07-.19,0-.07,0-.13,.03-.2,.03-.06,.08-.1,.16-.11l.26-.03c.17-.03,.33-.08,.47-.13,.14-.05,.27-.13,.39-.25s.24-.26,.35-.45c.11-.19,.23-.43,.34-.72L5.86,.14c.03-.09,.13-.14,.27-.14,.16,0,.28,.05,.37,.14,.28,.73,.59,1.51,.91,2.34,.32,.83,.66,1.67,1,2.53,.34,.86,.68,1.71,1.02,2.56,.34,.85,.66,1.65,.97,2.4,.14,.33,.27,.59,.4,.77,.13,.18,.26,.32,.39,.41,.13,.09,.26,.15,.4,.19,.14,.03,.28,.07,.44,.1,.07,.01,.12,.05,.14,.11,.03,.06,.04,.13,.04,.2s-.01,.13-.04,.19c-.03,.06-.07,.09-.13,.09-.36,0-.71-.02-1.05-.07-.34-.05-.71-.07-1.13-.07-.48,0-.93,.02-1.35,.07-.42,.05-.82,.07-1.21,.07-.08,0-.14-.03-.18-.09-.04-.06-.06-.13-.06-.21,0-.07,.02-.13,.05-.18,.03-.05,.09-.08,.17-.09,.39-.05,.67-.11,.85-.2,.18-.09,.27-.28,.27-.56,0-.08,0-.17-.03-.27-.02-.1-.05-.24-.11-.42-.06-.18-.14-.4-.24-.68-.1-.28-.24-.63-.41-1.07-.06-.15-.13-.24-.23-.28-.1-.04-.25-.06-.47-.06H3.95Zm2.93-.66c.16,0,.27-.03,.32-.08,.06-.05,.06-.14,0-.28l-1.48-3.99c-.02-.06-.07-.09-.14-.09s-.11,.03-.14,.09l-1.55,3.99c-.06,.15-.06,.24-.02,.29,.05,.05,.13,.07,.26,.07h2.74Z"/>
        <path class="cls-1" d="M15.3,2.52c0-.34-.03-.61-.08-.8-.05-.19-.14-.34-.26-.45-.12-.11-.28-.18-.47-.22-.19-.04-.44-.07-.73-.09-.07,0-.12-.03-.16-.09-.04-.06-.06-.13-.06-.2s.02-.13,.06-.19c.04-.06,.09-.09,.16-.09h.46c.22,0,.45,0,.72,0,.26,0,.53,.01,.81,.02,.28,0,.53,.02,.76,.03,.23,.02,.42,.04,.57,.07,.15,.03,.24,.07,.26,.11l3.46,8.13s.05,.05,.07,.05c.03,0,.06-.02,.09-.05L24.37,.63s.16-.08,.43-.11c.28-.03,.6-.05,.97-.07,.37-.02,.74-.03,1.13-.04,.38-.01,.68-.02,.91-.02,.07,0,.12,.03,.14,.09,.03,.06,.04,.12,.04,.19s-.02,.13-.05,.19c-.03,.06-.08,.09-.14,.1-.39,.07-.69,.13-.9,.19-.22,.06-.38,.16-.48,.32s-.16,.38-.19,.67c-.02,.3-.03,.72-.03,1.26v6.29c0,.38,.02,.67,.07,.88,.05,.21,.13,.37,.25,.49,.12,.11,.29,.2,.5,.25,.22,.05,.49,.09,.84,.13,.07,.01,.12,.05,.16,.11,.04,.06,.06,.13,.06,.2s-.02,.13-.06,.19c-.04,.06-.1,.09-.18,.09-.45,0-.89-.02-1.3-.07-.41-.05-.83-.07-1.24-.07-.43,0-.88,.02-1.34,.07-.46,.05-.88,.07-1.25,.07-.07,0-.12-.03-.15-.09-.03-.06-.05-.12-.05-.19s.02-.13,.05-.2c.03-.06,.09-.1,.15-.11,.35-.03,.63-.08,.84-.13,.21-.05,.38-.13,.49-.25,.12-.11,.2-.28,.24-.49,.04-.21,.06-.5,.06-.88V3.36c0-.08-.05-.12-.14-.11-.09,0-.15,.04-.17,.11l-2.46,5.78c-.17,.4-.34,.83-.5,1.3-.16,.47-.33,.95-.49,1.42-.01,.03-.04,.06-.09,.08-.05,.02-.11,.03-.16,.03s-.11,0-.16-.03c-.05-.02-.08-.04-.09-.08l-3.75-8.59c-.02-.06-.07-.09-.14-.1-.07-.01-.11,.03-.11,.12v6.34c0,.41,.03,.73,.1,.95s.17,.4,.3,.51c.13,.11,.29,.19,.49,.23,.19,.04,.42,.08,.68,.11,.06,.01,.1,.05,.13,.1,.03,.06,.04,.12,.04,.19s-.01,.13-.04,.19c-.03,.06-.08,.09-.14,.09-.25,0-.53-.02-.83-.07-.3-.05-.66-.07-1.07-.07-.43,0-.82,.02-1.15,.07-.34,.05-.62,.07-.84,.07-.06,0-.1-.03-.14-.09-.03-.06-.05-.12-.06-.19,0-.07,0-.13,.04-.19,.03-.06,.09-.09,.15-.1,.3-.03,.54-.07,.74-.11,.2-.04,.36-.12,.48-.23,.12-.11,.2-.28,.26-.51s.08-.55,.08-.95V2.52Z"/>
        <path class="cls-1" d="M38.1,.44c.09,0,.18,.01,.26,.03,.09,.02,.12,.11,.09,.27-.02,.13-.03,.27-.03,.43v.48c0,.51,.02,.99,.05,1.43,0,.05-.03,.08-.08,.11-.05,.03-.11,.05-.18,.05-.07,0-.13,0-.2-.03-.06-.02-.1-.07-.11-.14-.08-.44-.16-.79-.24-1.04-.08-.25-.19-.44-.33-.57-.14-.13-.34-.21-.58-.25-.24-.03-.57-.06-.96-.07h-1.02c-.3,0-.53,0-.71,.02-.18,.01-.32,.05-.42,.13-.1,.07-.17,.19-.2,.35-.03,.16-.05,.38-.05,.66v2.98c0,.16,.03,.26,.09,.3,.06,.04,.11,.06,.17,.06,.52,0,.93-.02,1.24-.07,.3-.05,.53-.13,.68-.25,.15-.12,.26-.28,.31-.47,.05-.19,.09-.44,.13-.75,.01-.07,.05-.12,.1-.15,.06-.03,.12-.05,.19-.05s.13,.02,.19,.05c.06,.03,.09,.09,.09,.15,0,.18,0,.34-.02,.49-.01,.14-.02,.28-.03,.43-.01,.14-.02,.29-.03,.44-.01,.15-.02,.33-.02,.54,0,.34,.02,.65,.05,.93,.03,.28,.05,.62,.05,1.01,0,.06-.03,.1-.09,.13-.06,.03-.12,.04-.19,.03-.07,0-.13-.02-.19-.05-.06-.03-.09-.08-.1-.14-.03-.33-.08-.6-.13-.8-.05-.2-.15-.36-.31-.47s-.38-.18-.68-.22c-.3-.04-.71-.06-1.24-.06-.06,0-.11,.02-.17,.06-.06,.04-.09,.12-.09,.25v2.23c0,.36,.03,.67,.08,.93s.13,.47,.23,.63,.23,.3,.38,.39c.15,.1,.32,.17,.53,.21,.16,.03,.34,.06,.54,.08,.2,.02,.41,.03,.62,.03,.27,0,.53-.01,.77-.03,.24-.02,.42-.06,.55-.1,.23-.08,.42-.16,.59-.26,.16-.09,.3-.21,.42-.36,.11-.15,.21-.33,.28-.55,.07-.22,.13-.5,.18-.84,.01-.07,.05-.11,.12-.14,.07-.02,.14-.03,.22-.03s.15,.02,.21,.05c.06,.03,.09,.08,.08,.14-.06,.48-.11,.92-.15,1.34-.05,.41-.06,.84-.05,1.27,0,.03-.02,.08-.07,.14-.05,.06-.15,.09-.32,.09h-6.19c-.43,0-.86,.01-1.27,.03-.41,.02-.79,.05-1.12,.07-.09,0-.16-.03-.2-.08-.05-.05-.07-.11-.09-.19-.01-.07,0-.14,.05-.2,.05-.06,.12-.1,.22-.11,.27-.03,.51-.08,.7-.14,.19-.06,.35-.15,.48-.27,.13-.12,.22-.27,.28-.45,.06-.18,.09-.41,.09-.7V3.29c0-.25,0-.49-.03-.73-.02-.24-.05-.46-.11-.67-.06-.2-.14-.38-.26-.53-.12-.15-.28-.25-.49-.31-.13-.03-.26-.06-.39-.09-.14-.02-.27-.04-.39-.05-.07,0-.12-.03-.15-.09-.03-.06-.05-.12-.05-.19s.02-.13,.05-.19c.03-.06,.09-.09,.15-.09,.39,0,.73,.01,1.04,.03,.31,.02,.67,.03,1.07,.03h6.12Z"/>
        <path class="cls-1" d="M42.46,3.31c0-.25,0-.49-.03-.73-.02-.24-.05-.46-.11-.66-.06-.2-.14-.38-.26-.53-.12-.15-.28-.25-.49-.31-.13-.03-.26-.06-.39-.09-.14-.02-.27-.04-.39-.05-.07,0-.12-.03-.15-.09-.03-.06-.05-.12-.05-.19s.02-.13,.05-.19c.03-.06,.09-.09,.15-.09,.39,0,.73,.01,1.04,.03,.31,.02,.67,.03,1.07,.03,.68-.01,1.25-.03,1.7-.04,.45-.02,.88-.03,1.29-.03,.45,0,.9,.05,1.35,.16,.44,.11,.84,.28,1.18,.52,.35,.24,.62,.55,.84,.94,.21,.39,.32,.85,.32,1.4,0,.43-.07,.81-.2,1.13-.13,.32-.31,.59-.54,.82-.23,.23-.5,.41-.81,.55-.31,.14-.65,.25-1.01,.33-.08,.02-.12,.06-.12,.12,0,.05,.04,.09,.12,.14,.53,.26,.95,.55,1.24,.87,.29,.32,.51,.65,.66,.99s.26,.69,.33,1.05c.07,.36,.14,.71,.22,1.05,.06,.26,.15,.45,.28,.57,.13,.12,.26,.18,.4,.18s.27-.06,.39-.17c.13-.11,.22-.28,.29-.51,.02-.09,.07-.15,.14-.18,.07-.03,.13-.03,.2-.02,.06,.02,.12,.05,.17,.1s.07,.11,.06,.16c-.03,.28-.11,.53-.24,.73s-.28,.37-.45,.5c-.18,.13-.38,.23-.6,.29-.22,.06-.44,.09-.66,.09-.36,0-.69-.08-.99-.24-.3-.16-.49-.39-.6-.68-.07-.19-.13-.4-.2-.63-.06-.23-.12-.46-.18-.69-.06-.23-.11-.46-.17-.68-.06-.22-.11-.42-.15-.59-.2-.73-.47-1.25-.79-1.57-.32-.32-.78-.48-1.36-.48-.19,0-.36,.04-.49,.12-.14,.08-.2,.24-.2,.48v2.3c0,.39,.04,.7,.12,.93,.08,.23,.2,.41,.36,.55,.16,.13,.36,.22,.59,.28,.23,.06,.5,.1,.81,.12,.07,0,.12,.03,.16,.09,.04,.06,.06,.13,.06,.21,0,.07-.02,.13-.06,.19-.04,.06-.1,.09-.18,.09-.57,0-1.07-.02-1.5-.07-.43-.05-.85-.07-1.26-.07-.43,0-.86,.02-1.28,.07-.42,.05-.83,.07-1.23,.07-.07,0-.12-.03-.15-.09-.03-.06-.05-.12-.06-.19s0-.13,.04-.2c.03-.06,.09-.1,.17-.11,.32-.03,.58-.08,.78-.14s.36-.15,.48-.27c.11-.13,.19-.29,.23-.49,.04-.2,.06-.48,.06-.82V3.31Zm1.86,2.03c0,.3,.08,.47,.25,.52,.16,.05,.41,.08,.74,.08,.44,0,.82-.04,1.12-.13,.3-.09,.54-.23,.72-.43,.18-.2,.31-.45,.38-.77,.07-.31,.11-.7,.11-1.15s-.04-.8-.12-1.1c-.08-.3-.21-.55-.38-.73-.18-.19-.41-.32-.69-.4-.28-.08-.63-.12-1.04-.12-.44,0-.74,.06-.88,.17-.14,.11-.21,.35-.21,.7v3.36Z"/>
        <path class="cls-1" d="M54.55,3c0-.35-.02-.65-.06-.9-.04-.25-.12-.45-.23-.61-.11-.16-.28-.28-.49-.37-.21-.09-.49-.14-.84-.16-.07,0-.12-.03-.15-.09-.03-.06-.05-.13-.05-.2s.02-.13,.05-.19c.03-.06,.09-.09,.15-.09,.36,0,.78,.02,1.24,.05,.47,.03,.9,.05,1.31,.05,.24,0,.46,0,.67-.02,.21-.01,.41-.02,.61-.03,.2-.01,.4-.02,.61-.03,.2-.01,.43-.02,.66-.02,.07,0,.12,.03,.14,.09,.03,.06,.04,.12,.03,.19,0,.07-.03,.13-.06,.2-.03,.06-.08,.09-.14,.09-.35,.02-.64,.07-.85,.14-.22,.07-.38,.19-.49,.34-.11,.15-.19,.36-.22,.61-.03,.25-.05,.57-.05,.95v6.68c0,.38,.02,.67,.07,.88,.05,.21,.13,.37,.25,.49,.12,.11,.29,.2,.5,.25,.22,.05,.49,.09,.84,.13,.07,.01,.12,.05,.16,.11,.04,.06,.06,.13,.06,.2s-.02,.13-.06,.19c-.04,.06-.1,.09-.18,.09-.45,0-.89-.02-1.3-.07-.42-.05-.83-.07-1.24-.07-.43,0-.88,.02-1.34,.07-.46,.05-.88,.07-1.25,.07-.07,0-.12-.03-.15-.09-.03-.06-.05-.12-.05-.19s.02-.13,.05-.2c.03-.06,.09-.1,.15-.11,.35-.03,.63-.08,.84-.13,.21-.05,.38-.13,.49-.25,.12-.11,.2-.28,.24-.49,.04-.21,.06-.5,.06-.88V3Z"/>
        <path class="cls-1" d="M66.18,.1c.51,0,.98,.06,1.42,.19,.43,.13,.86,.29,1.28,.49,.12,.06,.24,.11,.35,.16,.11,.05,.2,.08,.28,.08,.18,0,.3-.11,.36-.32,.01-.05,.05-.08,.11-.1,.06-.02,.13-.03,.19-.03,.06,0,.12,.02,.16,.04,.05,.02,.06,.06,.05,.1-.05,.18-.08,.37-.09,.56-.02,.19-.03,.39-.03,.6,0,.32,.02,.64,.07,.95,.05,.32,.09,.65,.14,.99,0,.05-.03,.08-.08,.11-.05,.03-.11,.05-.19,.05-.07,0-.14,0-.21-.03-.07-.02-.11-.06-.12-.12-.28-1.02-.74-1.78-1.38-2.26-.64-.48-1.44-.72-2.4-.72-.75,0-1.37,.16-1.86,.48-.49,.32-.88,.73-1.17,1.24-.29,.51-.49,1.06-.61,1.67-.11,.61-.17,1.2-.17,1.78,0,.64,.07,1.27,.2,1.91,.14,.64,.36,1.21,.66,1.72,.31,.51,.71,.93,1.2,1.25,.49,.32,1.09,.49,1.8,.49,.55,0,1.03-.05,1.47-.14,.43-.1,.8-.28,1.09-.54,.36-.33,.65-.72,.87-1.18,.22-.46,.37-.98,.46-1.56,.01-.08,.05-.13,.11-.15,.06-.02,.13-.03,.2,0s.13,.05,.19,.09,.08,.09,.07,.14c-.03,.23-.06,.45-.07,.67-.01,.22-.02,.45-.02,.67,0,.39,.01,.78,.04,1.18,.03,.4,.05,.83,.08,1.27,0,.07-.02,.12-.07,.15-.05,.03-.1,.05-.16,.06-.06,0-.12,0-.18-.03-.06-.03-.09-.07-.1-.13-.02-.1-.06-.2-.12-.3-.06-.1-.13-.18-.22-.24-.09-.06-.2-.09-.32-.09-.11,0-.24,.04-.39,.12-.25,.14-.49,.25-.72,.35-.23,.1-.47,.17-.71,.23-.24,.06-.49,.1-.75,.12-.26,.02-.55,.03-.85,.03-2.01,0-3.5-.5-4.48-1.51-.97-1.01-1.46-2.45-1.46-4.32,0-1,.15-1.88,.46-2.65,.31-.77,.73-1.41,1.27-1.94,.54-.52,1.18-.92,1.93-1.18,.74-.27,1.55-.4,2.43-.4Z"/>
        <path class="cls-1" d="M78.25,12.07c-1.78,0-3.18-.51-4.19-1.52-1.01-1.01-1.52-2.52-1.52-4.54,0-.86,.14-1.66,.43-2.39,.28-.73,.68-1.35,1.18-1.88,.51-.52,1.11-.93,1.82-1.22s1.48-.43,2.34-.43,1.59,.14,2.28,.42c.69,.28,1.29,.67,1.79,1.18,.5,.51,.89,1.13,1.17,1.85,.28,.72,.42,1.53,.42,2.41,0,.99-.15,1.86-.45,2.62-.3,.76-.71,1.39-1.23,1.91s-1.12,.91-1.82,1.18c-.69,.27-1.43,.4-2.22,.4Zm.07-.72c.56,0,1.05-.15,1.47-.44,.43-.3,.79-.68,1.08-1.17,.3-.48,.52-1.04,.67-1.67s.23-1.29,.23-1.97-.06-1.31-.18-1.94c-.12-.64-.32-1.2-.59-1.7s-.64-.89-1.09-1.19c-.45-.3-1.01-.45-1.67-.45-.61,0-1.15,.15-1.59,.46-.45,.31-.82,.71-1.1,1.2-.28,.49-.49,1.06-.63,1.69-.14,.63-.2,1.27-.2,1.92,0,.68,.06,1.34,.17,1.98,.11,.64,.31,1.2,.58,1.68,.27,.48,.64,.87,1.1,1.17,.46,.3,1.04,.44,1.75,.44Z"/>
        <path class="cls-1" d="M87.66,3.31c0-.25,0-.49-.03-.73-.02-.24-.05-.46-.11-.66-.06-.2-.14-.38-.26-.53-.12-.15-.28-.25-.49-.31-.13-.03-.26-.06-.39-.09-.14-.02-.27-.04-.39-.05-.07,0-.12-.03-.15-.09-.03-.06-.05-.12-.05-.19s.02-.13,.05-.19c.03-.06,.08-.09,.15-.09,.39,0,.73,.01,1.04,.03,.31,.02,.66,.03,1.07,.03,.47,0,.93,0,1.38-.03s.91-.03,1.38-.04c.93,0,1.79,.15,2.58,.44,.79,.3,1.47,.71,2.04,1.24,.57,.53,1.01,1.16,1.34,1.89,.32,.73,.49,1.53,.49,2.4,0,.95-.15,1.78-.46,2.49-.31,.7-.73,1.29-1.26,1.76-.53,.47-1.17,.82-1.9,1.05-.73,.23-1.53,.34-2.38,.34-.51,0-1.01-.02-1.49-.07-.48-.05-.92-.07-1.3-.07-.24,0-.45,0-.65,0s-.38,.01-.56,.03-.37,.03-.55,.05c-.19,.02-.4,.05-.62,.07-.07,.01-.12-.01-.16-.07-.04-.06-.07-.12-.08-.19-.01-.07,0-.14,.04-.2,.04-.07,.11-.11,.2-.12,.27-.03,.51-.08,.7-.14,.19-.06,.35-.15,.48-.26,.12-.11,.22-.26,.27-.44,.06-.18,.09-.42,.09-.72V3.31Zm1.86,5.39c0,.57,.03,1.02,.08,1.36,.05,.34,.15,.59,.3,.76s.36,.28,.64,.33,.65,.08,1.12,.08c.51,0,.98-.11,1.41-.32,.43-.22,.79-.53,1.1-.95,.31-.41,.55-.92,.72-1.53,.17-.6,.26-1.3,.26-2.08,0-.83-.09-1.57-.26-2.21-.17-.64-.45-1.18-.84-1.62-.39-.44-.9-.77-1.54-.99-.64-.22-1.43-.33-2.36-.33-.23,0-.39,.04-.48,.12-.09,.08-.14,.23-.14,.46v6.92Z"/>
        <path class="cls-1" d="M107.49,.44c.09,0,.18,.01,.26,.03,.09,.02,.12,.11,.09,.27-.02,.13-.03,.27-.03,.43v.48c0,.51,.02,.99,.05,1.43,0,.05-.03,.08-.08,.11-.05,.03-.11,.05-.18,.05-.07,0-.13,0-.2-.03-.06-.02-.1-.07-.11-.14-.08-.44-.16-.79-.24-1.04-.08-.25-.19-.44-.33-.57-.14-.13-.34-.21-.58-.25-.24-.03-.57-.06-.96-.07h-1.02c-.3,0-.53,0-.71,.02-.18,.01-.32,.05-.42,.13-.1,.07-.17,.19-.2,.35-.03,.16-.05,.38-.05,.66v2.98c0,.16,.03,.26,.09,.3,.06,.04,.11,.06,.17,.06,.52,0,.93-.02,1.24-.07,.3-.05,.53-.13,.68-.25,.15-.12,.26-.28,.31-.47,.05-.19,.09-.44,.13-.75,.01-.07,.05-.12,.1-.15,.06-.03,.12-.05,.19-.05s.13,.02,.19,.05c.06,.03,.09,.09,.09,.15,0,.18,0,.34-.02,.49-.01,.14-.02,.28-.03,.43-.01,.14-.02,.29-.03,.44s-.02,.33-.02,.54c0,.34,.02,.65,.05,.93,.03,.28,.05,.62,.05,1.01,0,.06-.03,.1-.09,.13-.06,.03-.12,.04-.19,.03-.07,0-.13-.02-.19-.05-.06-.03-.09-.08-.1-.14-.03-.33-.08-.6-.13-.8-.05-.2-.15-.36-.31-.47s-.38-.18-.68-.22c-.3-.04-.71-.06-1.24-.06-.06,0-.11,.02-.17,.06-.06,.04-.09,.12-.09,.25v2.23c0,.36,.03,.67,.08,.93,.05,.26,.13,.47,.23,.63s.23,.3,.37,.39c.15,.1,.32,.17,.53,.21,.16,.03,.34,.06,.54,.08,.2,.02,.41,.03,.62,.03,.27,0,.53-.01,.77-.03,.24-.02,.42-.06,.55-.1,.23-.08,.42-.16,.59-.26,.16-.09,.3-.21,.42-.36,.11-.15,.21-.33,.28-.55,.07-.22,.13-.5,.18-.84,.01-.07,.05-.11,.12-.14,.07-.02,.14-.03,.22-.03s.15,.02,.21,.05c.06,.03,.09,.08,.08,.14-.06,.48-.11,.92-.15,1.34-.05,.41-.06,.84-.05,1.27,0,.03-.02,.08-.07,.14-.05,.06-.15,.09-.32,.09h-6.19c-.43,0-.86,.01-1.27,.03-.42,.02-.79,.05-1.12,.07-.09,0-.16-.03-.2-.08-.05-.05-.07-.11-.08-.19-.01-.07,0-.14,.05-.2,.05-.06,.12-.1,.22-.11,.27-.03,.51-.08,.7-.14,.19-.06,.35-.15,.48-.27,.12-.12,.22-.27,.28-.45,.06-.18,.09-.41,.09-.7V3.29c0-.25,0-.49-.03-.73-.02-.24-.05-.46-.11-.67s-.14-.38-.26-.53c-.12-.15-.28-.25-.49-.31-.13-.03-.26-.06-.39-.09-.14-.02-.27-.04-.39-.05-.07,0-.12-.03-.15-.09-.03-.06-.05-.12-.05-.19s.02-.13,.05-.19c.03-.06,.08-.09,.15-.09,.39,0,.73,.01,1.04,.03,.31,.02,.66,.03,1.07,.03h6.12Z"/>
        <path class="cls-1" d="M111.85,3.31c0-.25,0-.49-.03-.73-.02-.24-.05-.46-.11-.66-.06-.2-.14-.38-.26-.53-.12-.15-.28-.25-.49-.31-.13-.03-.26-.06-.39-.09-.14-.02-.27-.04-.39-.05-.07,0-.12-.03-.15-.09-.03-.06-.05-.12-.05-.19s.02-.13,.05-.19c.03-.06,.08-.09,.15-.09,.39,0,.73,.01,1.04,.03,.31,.02,.66,.03,1.07,.03,.68-.01,1.25-.03,1.7-.04s.88-.03,1.29-.03c.45,0,.9,.05,1.35,.16,.44,.11,.84,.28,1.18,.52,.35,.24,.62,.55,.84,.94,.21,.39,.32,.85,.32,1.4,0,.43-.07,.81-.2,1.13-.13,.32-.31,.59-.54,.82s-.5,.41-.81,.55c-.31,.14-.65,.25-1.01,.33-.08,.02-.12,.06-.12,.12,0,.05,.04,.09,.12,.14,.53,.26,.95,.55,1.24,.87,.29,.32,.51,.65,.66,.99,.15,.34,.26,.69,.33,1.05,.07,.36,.14,.71,.22,1.05,.06,.26,.15,.45,.28,.57,.13,.12,.26,.18,.4,.18s.27-.06,.39-.17c.12-.11,.22-.28,.29-.51,.02-.09,.07-.15,.14-.18,.07-.03,.13-.03,.2-.02,.06,.02,.12,.05,.17,.1,.05,.05,.07,.11,.06,.16-.03,.28-.11,.53-.24,.73-.13,.2-.28,.37-.45,.5-.18,.13-.37,.23-.6,.29-.22,.06-.44,.09-.66,.09-.36,0-.69-.08-.99-.24s-.49-.39-.6-.68c-.07-.19-.13-.4-.2-.63-.06-.23-.12-.46-.18-.69-.06-.23-.11-.46-.17-.68-.06-.22-.11-.42-.15-.59-.2-.73-.47-1.25-.79-1.57-.32-.32-.78-.48-1.36-.48-.19,0-.36,.04-.49,.12-.14,.08-.2,.24-.2,.48v2.3c0,.39,.04,.7,.12,.93,.08,.23,.2,.41,.36,.55,.16,.13,.36,.22,.59,.28,.23,.06,.5,.1,.81,.12,.07,0,.12,.03,.16,.09,.04,.06,.06,.13,.06,.21,0,.07-.02,.13-.06,.19-.04,.06-.1,.09-.18,.09-.57,0-1.07-.02-1.5-.07-.43-.05-.85-.07-1.26-.07-.43,0-.86,.02-1.28,.07-.42,.05-.83,.07-1.23,.07-.07,0-.12-.03-.15-.09-.03-.06-.05-.12-.06-.19,0-.07,0-.13,.04-.2,.03-.06,.09-.1,.17-.11,.32-.03,.58-.08,.78-.14,.2-.06,.36-.15,.48-.27,.11-.13,.19-.29,.23-.49,.04-.2,.06-.48,.06-.82V3.31Zm1.86,2.03c0,.3,.08,.47,.25,.52s.41,.08,.74,.08c.44,0,.82-.04,1.12-.13,.3-.09,.54-.23,.72-.43,.18-.2,.31-.45,.38-.77,.07-.31,.11-.7,.11-1.15s-.04-.8-.12-1.1c-.08-.3-.21-.55-.38-.73-.18-.19-.41-.32-.69-.4-.28-.08-.63-.12-1.04-.12-.44,0-.74,.06-.88,.17-.14,.11-.21,.35-.21,.7v3.36Z"/>
        <path class="cls-1" d="M123.72,2.69c0,.34,.07,.63,.21,.86,.14,.23,.32,.43,.55,.59,.22,.16,.47,.3,.73,.42s.53,.24,.78,.35c.43,.2,.86,.42,1.29,.65,.43,.23,.81,.49,1.15,.79,.34,.3,.62,.66,.83,1.07,.21,.41,.32,.92,.32,1.51s-.12,1.09-.37,1.49c-.24,.4-.56,.73-.95,.99-.39,.26-.83,.44-1.32,.55-.49,.11-.98,.17-1.47,.17-.32,0-.68-.05-1.07-.14s-.76-.24-1.09-.43c-.06-.02-.11-.05-.16-.07-.05-.02-.12-.03-.2-.03s-.17,.03-.26,.1c-.09,.07-.17,.19-.24,.36-.03,.07-.08,.11-.14,.14-.06,.02-.12,.03-.18,.03s-.11-.03-.15-.06c-.04-.03-.06-.07-.06-.12,.03-.25,.07-.52,.09-.81s.04-.58,.04-.88,0-.59-.03-.89c-.02-.3-.05-.6-.09-.92-.01-.07,.01-.12,.07-.17,.06-.05,.12-.07,.19-.08s.13,0,.2,.03c.06,.03,.1,.08,.11,.14,.07,.47,.19,.89,.37,1.27,.18,.38,.41,.7,.68,.97,.27,.27,.58,.47,.93,.62,.35,.15,.72,.22,1.13,.22,.31,0,.6-.04,.88-.13,.28-.09,.53-.21,.74-.38,.22-.16,.39-.37,.51-.61,.12-.24,.19-.52,.19-.84,0-.41-.09-.77-.26-1.07-.18-.31-.4-.57-.66-.79-.26-.22-.55-.41-.87-.58-.32-.16-.62-.32-.9-.45-.37-.17-.75-.35-1.13-.53-.38-.18-.71-.4-1.01-.66s-.53-.56-.72-.92c-.18-.36-.27-.8-.27-1.34s.11-1,.33-1.37c.22-.37,.51-.67,.88-.9,.36-.23,.78-.39,1.24-.49,.47-.1,.95-.15,1.45-.15,.32,0,.59,.02,.81,.06,.22,.04,.47,.11,.74,.2,.15,.05,.27,.08,.37,.11,.1,.03,.19,.04,.28,.04,.14,0,.23-.06,.29-.17,.02-.05,.07-.08,.13-.09,.06-.02,.12-.02,.18-.02s.11,.02,.15,.04c.05,.02,.06,.06,.05,.1-.06,.2-.09,.41-.11,.61-.02,.2-.03,.42-.03,.65,0,.3,.02,.56,.05,.8,.03,.24,.06,.52,.08,.85,0,.03-.02,.07-.07,.09-.05,.03-.1,.05-.16,.05-.06,0-.12,0-.18-.03-.06-.02-.09-.06-.1-.12-.11-.5-.24-.91-.38-1.24s-.31-.58-.51-.76c-.2-.18-.45-.31-.74-.38-.29-.07-.64-.1-1.05-.1-.28,0-.55,.04-.81,.11-.26,.07-.48,.18-.67,.33-.19,.15-.35,.33-.46,.55-.11,.22-.17,.47-.17,.76Z"/>
      </g>
      <g>
        <path class="cls-1" d="M50.96,22.11s-.04,.01-.05,.03c0,.02,0,.04,0,.07,0,.3,.03,.55,.1,.76,.07,.21,.16,.37,.28,.5,.12,.13,.26,.22,.42,.28,.16,.06,.34,.09,.53,.09s.38-.02,.57-.05c.18-.03,.34-.1,.47-.21,.03-.02,.06-.03,.09-.03,.03,0,.06,.02,.08,.04,.02,.02,.03,.05,.04,.08,0,.03,0,.05-.02,.08-.18,.24-.39,.41-.62,.5-.23,.09-.51,.14-.85,.14s-.64-.05-.89-.15c-.25-.1-.46-.25-.62-.43-.16-.19-.28-.4-.36-.65-.08-.25-.12-.52-.12-.81s.05-.55,.14-.8c.09-.25,.23-.47,.4-.65,.17-.18,.38-.33,.61-.44,.23-.11,.5-.16,.78-.16,.24,0,.46,.04,.66,.12,.2,.08,.37,.2,.5,.34s.24,.32,.32,.52c.08,.2,.12,.42,.12,.66,0,.12-.04,.18-.13,.18h-2.45Zm1.57-.3c.08,0,.13-.03,.14-.09,.01-.06,.02-.13,.02-.21,0-.12-.02-.24-.06-.35-.04-.11-.09-.21-.16-.3-.07-.09-.15-.15-.25-.21-.1-.05-.21-.08-.34-.08-.15,0-.29,.03-.4,.08-.11,.05-.21,.13-.28,.21-.08,.09-.14,.19-.18,.31-.04,.12-.07,.25-.09,.38-.01,.07-.02,.12-.01,.17,0,.04,.02,.06,.04,.06h1.56Z"/>
        <path class="cls-1" d="M57.19,20.41c-.02,.06-.03,.14-.05,.23-.01,.09-.02,.19-.02,.29,0,.11,0,.22,0,.34,0,.12,0,.21,0,.27,0,.02-.01,.03-.03,.04-.02,.01-.05,.02-.08,.02-.03,0-.05,0-.08,0-.02,0-.04-.02-.04-.04-.06-.3-.17-.54-.31-.7-.14-.16-.37-.24-.69-.24-.21,0-.39,.05-.52,.16-.14,.11-.21,.25-.21,.43,0,.15,.06,.26,.17,.34,.11,.08,.27,.15,.46,.22,.08,.03,.18,.06,.29,.11,.11,.04,.2,.08,.27,.11,.15,.07,.29,.14,.42,.21,.13,.07,.24,.16,.34,.26,.09,.1,.17,.21,.22,.34,.05,.13,.08,.27,.08,.44,0,.22-.05,.4-.14,.55-.09,.15-.21,.26-.35,.35-.14,.09-.31,.15-.49,.19-.18,.04-.36,.06-.54,.06-.15,0-.32-.02-.5-.05-.18-.03-.34-.08-.48-.15-.03-.01-.07,0-.11,.02-.04,.02-.06,.07-.07,.13,0,.02-.01,.03-.04,.03-.03,0-.05,0-.08,0-.02,0-.05,0-.07-.01-.02,0-.03-.02-.03-.04,0-.05,0-.11,.02-.19,.01-.08,.02-.15,.02-.22s0-.14-.01-.23c0-.08-.02-.16-.03-.24,0-.08-.02-.15-.02-.21,0-.06,0-.11,0-.14,0-.02,.01-.04,.03-.05,.02-.01,.05-.02,.08-.02,.03,0,.06,0,.08,0s.04,.02,.05,.05c.04,.17,.09,.31,.15,.44,.06,.13,.14,.23,.24,.32,.09,.09,.21,.15,.34,.19,.13,.04,.3,.06,.49,.06,.21,0,.37-.06,.5-.17,.13-.11,.19-.28,.19-.48,0-.18-.06-.33-.19-.43-.13-.11-.28-.2-.45-.28-.08-.03-.16-.07-.25-.1s-.17-.07-.25-.1c-.13-.05-.25-.1-.37-.16-.12-.05-.23-.12-.33-.2-.09-.08-.17-.18-.23-.3-.06-.12-.09-.27-.09-.45,0-.21,.04-.38,.13-.52,.09-.14,.2-.26,.34-.35,.14-.09,.3-.15,.47-.19,.17-.04,.34-.06,.51-.06s.3,.02,.43,.06c.12,.04,.26,.1,.41,.2,.02,.01,.05,.01,.09,0,.04-.01,.07-.06,.09-.14,0-.02,.02-.04,.05-.04,.03,0,.06,0,.09,0,.03,0,.05,.01,.08,.02,.02,.01,.03,.03,.03,.04Z"/>
        <path class="cls-1" d="M59.42,22.98c0,.32,.04,.56,.11,.71,.07,.15,.2,.23,.39,.23,.13,0,.26-.02,.37-.06,.12-.04,.21-.08,.27-.13,.02-.01,.04-.01,.06,0s.04,.02,.06,.04c.02,.02,.03,.04,.04,.06,0,.02,0,.04,0,.06-.11,.18-.25,.3-.43,.38-.17,.07-.38,.11-.61,.11-.39,0-.66-.09-.83-.26-.16-.17-.24-.45-.24-.82v-2.21c0-.07,0-.12,0-.16,0-.04-.02-.07-.05-.09-.03-.02-.08-.03-.14-.03-.07,0-.16,0-.28,0-.02,0-.03-.02-.04-.05-.01-.03-.02-.07-.02-.11,0-.04,0-.08,.01-.11,.01-.03,.03-.05,.05-.05,.14-.01,.27-.03,.37-.06,.1-.03,.19-.08,.26-.15,.07-.07,.13-.16,.17-.28,.04-.12,.08-.27,.11-.46,0-.03,.03-.06,.07-.08,.04-.02,.08-.03,.13-.03s.09,0,.12,.02c.04,.01,.06,.03,.06,.06v.74c0,.09,0,.14,.01,.16,0,.01,.04,.02,.11,.02h.89s.07,.02,.08,.07c.01,.05,.02,.09,.02,.12s0,.08-.02,.12c-.01,.05-.04,.07-.09,.07h-.92s-.06,.01-.07,.03c0,.02,0,.09,0,.22v1.92Z"/>
        <path class="cls-1" d="M64.06,24.3s-.07-.01-.09-.03c-.02-.02-.04-.05-.05-.09,0-.03,0-.07,0-.1s.02-.06,.05-.09c.4-.33,.74-.6,1.01-.83,.27-.23,.49-.44,.65-.62,.16-.18,.28-.36,.35-.52,.07-.16,.1-.34,.1-.52,0-.12,0-.24-.03-.35-.02-.11-.05-.21-.1-.3s-.12-.16-.21-.21c-.09-.05-.2-.08-.35-.08s-.26,.02-.35,.06c-.1,.04-.18,.08-.24,.14-.07,.05-.11,.11-.14,.17-.03,.06-.04,.11-.04,.15,0,.02,0,.04,0,.07s.01,.06,.03,.08c.01,.03,.04,.05,.07,.07,.03,.02,.08,.03,.15,.03,.1,0,.16,.03,.19,.09,.03,.06,.05,.12,.05,.19s-.03,.13-.1,.19c-.07,.06-.16,.09-.27,.09s-.2-.02-.27-.06c-.07-.04-.12-.09-.16-.15-.04-.06-.07-.13-.08-.2-.01-.07-.02-.14-.02-.2,0-.13,.03-.26,.09-.38,.06-.12,.15-.22,.26-.31,.11-.09,.26-.16,.43-.21,.17-.05,.37-.08,.59-.08s.42,.03,.6,.09c.17,.06,.32,.14,.43,.24s.2,.22,.26,.37,.09,.29,.09,.44c0,.22-.06,.44-.19,.64-.13,.21-.29,.4-.48,.58-.19,.18-.41,.35-.64,.5-.23,.15-.45,.29-.67,.42-.03,.01-.04,.03-.04,.06,0,.02,.01,.03,.04,.03h1.24c.07,0,.14,0,.19-.02,.05-.01,.1-.04,.15-.08,.04-.04,.09-.09,.13-.16,.04-.07,.09-.17,.13-.29,.01-.02,.03-.04,.06-.06,.03-.01,.06-.02,.09-.02,.03,0,.05,.01,.08,.03,.02,.02,.03,.04,.03,.07-.05,.19-.09,.38-.14,.56-.05,.18-.07,.38-.06,.61h-2.81Z"/>
        <path class="cls-1" d="M72.09,22.24c0,.35-.05,.66-.16,.93-.11,.27-.25,.5-.44,.68-.19,.18-.41,.32-.67,.42-.26,.09-.55,.14-.86,.14-.27,0-.52-.04-.76-.13-.24-.09-.44-.22-.62-.4-.18-.17-.32-.4-.42-.66-.1-.27-.15-.58-.15-.94,0-.29,.05-.56,.15-.81,.1-.25,.25-.46,.43-.63,.18-.17,.4-.31,.65-.41,.25-.1,.52-.15,.82-.15,.28,0,.54,.04,.79,.13,.25,.09,.46,.22,.64,.38,.18,.17,.32,.37,.43,.61,.1,.24,.15,.52,.15,.84Zm-.87,.09c0-.22-.02-.43-.06-.64-.04-.21-.1-.4-.19-.56-.09-.16-.2-.3-.34-.4-.14-.1-.31-.15-.52-.15-.22,0-.41,.05-.57,.15-.15,.1-.28,.23-.37,.4-.09,.17-.16,.35-.21,.56-.04,.21-.06,.43-.06,.65,0,.19,.02,.4,.06,.6,.04,.21,.11,.39,.2,.56,.09,.17,.21,.3,.36,.41,.15,.11,.33,.16,.55,.16s.4-.05,.55-.15c.15-.1,.27-.24,.36-.4,.09-.17,.15-.35,.19-.56,.04-.21,.06-.42,.06-.63Z"/>
        <path class="cls-1" d="M73.03,24.3s-.07-.01-.09-.03c-.02-.02-.04-.05-.05-.09,0-.03,0-.07,0-.1s.02-.06,.05-.09c.4-.33,.74-.6,1.01-.83,.27-.23,.49-.44,.65-.62,.16-.18,.28-.36,.35-.52,.07-.16,.1-.34,.1-.52,0-.12,0-.24-.03-.35-.02-.11-.05-.21-.1-.3s-.12-.16-.21-.21c-.09-.05-.2-.08-.35-.08s-.26,.02-.35,.06c-.1,.04-.18,.08-.24,.14-.07,.05-.11,.11-.14,.17-.03,.06-.04,.11-.04,.15,0,.02,0,.04,0,.07s.01,.06,.03,.08c.01,.03,.04,.05,.07,.07,.03,.02,.08,.03,.15,.03,.1,0,.16,.03,.19,.09,.03,.06,.05,.12,.05,.19s-.03,.13-.1,.19c-.07,.06-.16,.09-.27,.09s-.2-.02-.27-.06c-.07-.04-.12-.09-.16-.15-.04-.06-.07-.13-.08-.2-.01-.07-.02-.14-.02-.2,0-.13,.03-.26,.09-.38,.06-.12,.15-.22,.26-.31,.11-.09,.26-.16,.43-.21,.17-.05,.37-.08,.59-.08s.42,.03,.6,.09c.17,.06,.32,.14,.43,.24s.2,.22,.26,.37,.09,.29,.09,.44c0,.22-.06,.44-.19,.64-.13,.21-.29,.4-.48,.58-.19,.18-.41,.35-.64,.5-.23,.15-.45,.29-.67,.42-.03,.01-.04,.03-.04,.06,0,.02,.01,.03,.04,.03h1.24c.07,0,.14,0,.19-.02,.05-.01,.1-.04,.15-.08,.04-.04,.09-.09,.13-.16,.04-.07,.09-.17,.13-.29,.01-.02,.03-.04,.06-.06,.03-.01,.06-.02,.09-.02,.03,0,.05,.01,.08,.03,.02,.02,.03,.04,.03,.07-.05,.19-.09,.38-.14,.56-.05,.18-.07,.38-.06,.61h-2.81Z"/>
        <path class="cls-1" d="M78.78,23.19c0,.19,0,.34,.02,.45,.01,.11,.05,.19,.09,.26,.05,.06,.12,.11,.21,.13s.22,.05,.38,.07c.02,0,.04,.02,.06,.04,.01,.02,.02,.05,.02,.08,0,.03-.01,.05-.03,.08s-.03,.03-.06,.03c-.05,0-.11,0-.17,0-.06,0-.12,0-.19-.01-.1-.01-.2-.02-.31-.03-.11,0-.22,0-.36,0-.25,0-.49,0-.71,.03-.1,0-.19,.01-.28,.02-.09,0-.17,0-.25,0-.02,0-.04-.01-.05-.03-.01-.02-.02-.05-.02-.08,0-.03,0-.05,.02-.08,.01-.02,.04-.04,.06-.04,.18-.02,.32-.04,.42-.07,.1-.03,.17-.07,.22-.14,.05-.06,.08-.15,.09-.26,.01-.11,.02-.26,.02-.45v-1.6c0-.31-.02-.52-.05-.63-.03-.11-.12-.17-.27-.17-.05,0-.12,0-.2,.02-.08,.01-.17,.03-.27,.04-.05,0-.08-.03-.1-.1-.01-.07,0-.11,.04-.13,.14-.05,.28-.08,.4-.11,.12-.03,.24-.05,.36-.07,.1-.02,.2-.04,.32-.06,.11-.02,.25-.05,.41-.1,.11-.03,.17,0,.17,.1v2.8Z"/>
      </g>
    </g>
  </g>
</svg>